<?xml version="1.0" encoding="utf-8"?>
<!DOCTYPE svg PUBLIC "-//W3C//DTD SVG 1.1//EN" "http://www.w3.org/Graphics/SVG/1.1/DTD/svg11.dtd">
<svg version="1.1" xmlns="http://www.w3.org/2000/svg" xmlns:xlink="http://www.w3.org/1999/xlink" x="0px" y="0px"
	 width="40px" height="40px" viewBox="0 0 40 40" xml:space="preserve">
<style>
  #circle, #quarter-circle {
    fill: hsla(155, 100%, 25%, 1.0);
  }
  #circle {
    opacity: .25;
  }
  #quarter-circle {
    opacity: .5;
  }
</style>
<path id="circle" d="M20,0C8.954,0,0,8.954,0,20s8.954,20,20,20s20-8.954,20-20S31.046,0,20,0z M20,35c-8.284,0-15-6.716-15-15S11.716,5,20,5
	s15,6.716,15,15S28.284,35,20,35z"/>
<path id="quarter-circle" d="M40,20C40,8.954,31.046,0,20,0v5c8.284,0,15,6.716,15,15H40z"/>
</svg>
