<?xml version="1.0" encoding="utf-8"?>
<!DOCTYPE svg PUBLIC "-//W3C//DTD SVG 1.1//EN" "http://www.w3.org/Graphics/SVG/1.1/DTD/svg11.dtd">
<svg version="1.1" xmlns="http://www.w3.org/2000/svg" xmlns:xlink="http://www.w3.org/1999/xlink" viewBox="0 0 800 500">
<style> 
	svg {
	background-color: #0A84C1;
	}
	.solid {
	fill: #0A84C1;
	}
	.line, .reverse-line {
	fill: none;
	}
	.reverse-line {
	stroke: #0A84C1;
	}
	.line, .solid, .reverse-line {
	stroke-width: 1px;
	}
	.line, .solid {
	stroke: #7CCEB6;
	}
	.reverse-solid {
	fill: #7CCEB6;
	}

</style>
<g>
	<path class="solid" stroke-linecap="round" stroke-linejoin="round" stroke-miterlimit="10" d="M172.572,281.116
		c2.062,2.072,2.062,5.462,0,7.531l-90.503,90.904c-2.062,2.073-5.436,2.073-7.498,0l-60.165-60.43c-2.062-2.07-2.062-5.46,0-7.531
		l90.503-90.904c2.063-2.071,5.438-2.071,7.501,0L172.572,281.116z"/>
	<g>
		<path class="solid" stroke-linecap="round" stroke-linejoin="round" stroke-miterlimit="10" d="M87.862,289.147
			c0.715,0.717,1.105,1.603,1.167,2.651c0.066,1.05-0.242,1.915-0.926,2.601c-0.33-0.331-0.582-0.734-0.751-1.203
			c-0.096-0.267-0.188-0.736-0.271-1.397c-0.053-0.569,0.009-1.094,0.183-1.582C87.44,289.729,87.639,289.375,87.862,289.147
			 M92.865,290.614c0.357,0,0.896,0.022,1.615,0.076c-0.244,0.652-0.285,1.33-0.12,2.03c0.168,0.703,0.494,1.299,0.984,1.791
			c0.586,0.588,1.14,0.932,1.662,1.027c0.394,0.083,0.787,0.124,1.184,0.124c0.117,0,0.235-0.006,0.352-0.009
			c0.512-0.036,0.889-0.12,1.134-0.26c0.096,0.204,0.181,0.384,0.257,0.547c0.074,0.159,0.133,0.305,0.176,0.433
			c0.287,0.78,0.449,1.455,0.479,2.021c0.042,0.9,0.038,1.516-0.016,1.847c-0.097,0.461-0.325,0.875-0.687,1.239
			c-0.31,0.31-0.769,0.586-1.375,0.832c-0.577,0.234-0.977,0.467-1.197,0.689c-0.204,0.206-0.487,0.724-0.849,1.561
			c-0.202,0.438-0.4,0.754-0.593,0.946c-0.482,0.485-1.251,0.727-2.307,0.727c-0.088,0-0.176-0.002-0.267-0.005
			c-0.479-0.01-1.012-0.074-1.597-0.193c-1.079-0.202-2.021-0.493-2.822-0.874c-0.804-0.382-1.589-0.954-2.358-1.725
			c-0.937-0.943-1.495-2.084-1.678-3.42c-0.191-1.435,0.183-2.623,1.119-3.566c0.447-0.451,0.888-0.766,1.328-0.946
			c0.947-0.396,1.501-0.675,1.661-0.835c0.287-0.289,0.527-0.658,0.72-1.106c0.426-0.985,0.766-1.607,1.023-1.864
			c0.618-0.62,1.218-0.978,1.805-1.076C92.586,290.614,92.709,290.614,92.865,290.614"/>
	</g>
</g>
<g>
	<path class="solid" stroke-linecap="round" stroke-linejoin="round" stroke-miterlimit="10" d="M453.153,47.737
		l34.499-34.498c0.828-0.825,2.18-0.825,3.007,0L541.87,64.45c0.825,0.826,0.825,2.182,0,3.007l-34.5,34.498L453.153,47.737z"/>
	
		<rect x="503.694" y="11.485" transform="matrix(-0.7074 0.7068 -0.7068 -0.7074 897.949 -272.0703)" class="solid" stroke-linecap="round" stroke-linejoin="round" stroke-miterlimit="10" width="3.188" height="76.675"/>
	<path class="line" stroke-miterlimit="10" d="M510.776,99.151c1.704,1.302,4.11,4.108,6.512,3.105
		c1.905-0.701,2.607-3.406,3.409-5.01c0.702-1.503,1.802-4.409,3.908-4.508c2.507-0.102,3.605,3.205,3.708,5.108"/>
	<path class="line" stroke-miterlimit="10" d="M453.462,47.972c-1.216-1.896-0.309-4.456,2.706-3.606"/>
</g>
<g>
	<path class="solid" stroke-linecap="round" stroke-linejoin="round" stroke-miterlimit="10" d="M486.392,257.746
		l34.499,34.501c0.827,0.827,0.827,2.178,0,3.007l-69.248,69.248c-0.826,0.823-2.179,0.823-3.004,0l-34.501-34.501L486.392,257.746z
		"/>
	<path class="solid" stroke-linecap="round" stroke-linejoin="round" stroke-miterlimit="10" d="M453.411,358.515
		c0.247,0.248,0.247,0.654,0,0.902l-2.857,2.855c-0.243,0.246-0.651,0.246-0.899,0l-3.306-3.308c-0.249-0.249-0.249-0.653,0-0.902
		l2.855-2.855c0.25-0.248,0.652-0.248,0.901,0L453.411,358.515z"/>
	<path class="solid" stroke-linecap="round" stroke-linejoin="round" stroke-miterlimit="10" d="M458.072,343.183
		c0.247,0.247,0.247,0.655,0,0.9l-2.857,2.856c-0.247,0.247-0.652,0.247-0.9,0l-3.306-3.307c-0.249-0.248-0.249-0.652,0-0.9
		l2.855-2.856c0.247-0.249,0.653-0.249,0.9,0L458.072,343.183z"/>
	<path class="solid" stroke-linecap="round" stroke-linejoin="round" stroke-miterlimit="10" d="M450.308,340.378
		c0.246,0.249,0.246,0.651,0,0.902l-2.854,2.854c-0.251,0.25-0.656,0.25-0.905,0l-3.306-3.304c-0.248-0.249-0.248-0.653,0-0.902
		l2.855-2.855c0.247-0.248,0.652-0.248,0.9,0L450.308,340.378z"/>
	<path class="solid" stroke-linecap="round" stroke-linejoin="round" stroke-miterlimit="10" d="M444.634,335.579
		c0.248,0.245,0.248,0.654,0,0.901l-2.902,2.903c-0.248,0.247-0.655,0.247-0.903,0l-3.307-3.308c-0.248-0.248-0.248-0.652,0-0.901
		l2.905-2.903c0.247-0.248,0.651-0.248,0.899,0L444.634,335.579z"/>
	<path class="solid" stroke-linecap="round" stroke-linejoin="round" stroke-miterlimit="10" d="M449.492,330.719
		c0.245,0.251,0.245,0.657,0,0.905l-2.903,2.902c-0.248,0.246-0.652,0.246-0.901,0l-3.309-3.305c-0.245-0.25-0.245-0.656,0-0.905
		l2.904-2.9c0.249-0.249,0.653-0.249,0.901,0L449.492,330.719z"/>
	<path class="solid" stroke-linecap="round" stroke-linejoin="round" stroke-miterlimit="10" d="M454.349,325.864
		c0.25,0.248,0.25,0.652,0,0.901l-2.903,2.903c-0.248,0.248-0.653,0.248-0.9,0l-3.309-3.305c-0.246-0.249-0.246-0.656,0-0.904
		l2.904-2.903c0.248-0.245,0.655-0.245,0.903,0L454.349,325.864z"/>
	<path class="solid" stroke-linecap="round" stroke-linejoin="round" stroke-miterlimit="10" d="M459.207,321.005
		c0.248,0.252,0.248,0.654,0,0.903l-2.902,2.9c-0.249,0.249-0.655,0.249-0.904,0l-3.305-3.305c-0.249-0.247-0.249-0.651,0-0.9
		l2.903-2.905c0.248-0.248,0.653-0.248,0.9,0L459.207,321.005z"/>
	<path class="solid" stroke-linecap="round" stroke-linejoin="round" stroke-miterlimit="10" d="M464.063,316.148
		c0.247,0.248,0.247,0.655,0,0.903l-2.902,2.902c-0.248,0.248-0.652,0.248-0.9,0l-3.309-3.308c-0.249-0.247-0.249-0.653,0-0.898
		l2.903-2.906c0.248-0.248,0.653-0.248,0.902,0L464.063,316.148z"/>
	<path class="solid" stroke-linecap="round" stroke-linejoin="round" stroke-miterlimit="10" d="M468.923,311.292
		c0.248,0.246,0.248,0.651,0,0.899l-2.904,2.904c-0.249,0.248-0.651,0.248-0.9,0l-3.308-3.307c-0.246-0.248-0.246-0.654,0-0.903
		l2.902-2.901c0.248-0.247,0.654-0.247,0.9,0L468.923,311.292z"/>
	<path class="solid" stroke-linecap="round" stroke-linejoin="round" stroke-miterlimit="10" d="M473.78,306.435
		c0.248,0.248,0.248,0.651,0,0.9l-2.905,2.904c-0.248,0.249-0.652,0.249-0.901,0l-3.305-3.309c-0.249-0.246-0.249-0.654,0-0.901
		l2.901-2.901c0.249-0.252,0.656-0.252,0.902-0.004L473.78,306.435z"/>
	<path class="solid" stroke-linecap="round" stroke-linejoin="round" stroke-miterlimit="10" d="M478.637,301.574
		c0.249,0.247,0.249,0.656,0,0.905l-2.901,2.901c-0.247,0.246-0.657,0.246-0.902,0l-3.31-3.307c-0.246-0.249-0.246-0.655,0-0.902
		l2.906-2.903c0.248-0.249,0.652-0.249,0.901,0L478.637,301.574z"/>
	<path class="solid" stroke-linecap="round" stroke-linejoin="round" stroke-miterlimit="10" d="M483.496,296.718
		c0.245,0.248,0.245,0.655,0,0.902l-2.903,2.902c-0.25,0.248-0.655,0.248-0.903,0l-3.307-3.305c-0.249-0.25-0.249-0.655,0-0.902
		l2.905-2.904c0.245-0.246,0.652-0.246,0.898,0L483.496,296.718z"/>
	<path class="solid" stroke-linecap="round" stroke-linejoin="round" stroke-miterlimit="10" d="M488.352,291.86
		c0.248,0.249,0.248,0.653,0,0.901l-2.902,2.903c-0.249,0.249-0.653,0.249-0.901,0l-3.307-3.306c-0.247-0.246-0.247-0.655,0-0.901
		l2.901-2.903c0.251-0.248,0.654-0.248,0.904,0L488.352,291.86z"/>
	<path class="solid" stroke-linecap="round" stroke-linejoin="round" stroke-miterlimit="10" d="M493.209,287.005
		c0.248,0.247,0.248,0.652,0,0.9l-2.904,2.903c-0.248,0.249-0.651,0.249-0.901,0l-3.305-3.309c-0.248-0.246-0.248-0.651,0-0.901
		l2.901-2.901c0.249-0.251,0.654-0.251,0.904-0.002L493.209,287.005z"/>
	<path class="solid" stroke-linecap="round" stroke-linejoin="round" stroke-miterlimit="10" d="M498.067,282.145
		c0.247,0.248,0.247,0.655,0,0.903l-2.902,2.902c-0.249,0.248-0.656,0.248-0.903,0l-3.306-3.308c-0.249-0.247-0.249-0.653,0-0.899
		l2.904-2.904c0.247-0.249,0.651-0.249,0.899,0L498.067,282.145z"/>
	<path class="solid" stroke-linecap="round" stroke-linejoin="round" stroke-miterlimit="10" d="M502.927,277.287
		c0.248,0.248,0.248,0.653,0,0.9l-2.905,2.906c-0.247,0.247-0.652,0.247-0.899,0l-3.312-3.309c-0.247-0.247-0.247-0.654,0-0.9
		l2.906-2.903c0.248-0.249,0.652-0.249,0.9,0L502.927,277.287z"/>
	<path class="solid" stroke-linecap="round" stroke-linejoin="round" stroke-miterlimit="10" d="M455.167,335.519
		c0.248,0.248,0.248,0.653,0,0.9l-2.857,2.856c-0.246,0.248-0.655,0.248-0.901,0l-3.307-3.307c-0.248-0.247-0.248-0.652,0-0.899
		l2.855-2.857c0.248-0.248,0.656-0.248,0.902,0L455.167,335.519z"/>
	<path class="solid" stroke-linecap="round" stroke-linejoin="round" stroke-miterlimit="10" d="M460.026,330.659
		c0.249,0.247,0.249,0.653,0,0.899l-2.856,2.856c-0.248,0.248-0.655,0.248-0.903,0l-3.305-3.307c-0.25-0.247-0.25-0.655,0-0.902
		l2.854-2.853c0.25-0.25,0.656-0.25,0.905,0L460.026,330.659z"/>
	<path class="solid" stroke-linecap="round" stroke-linejoin="round" stroke-miterlimit="10" d="M464.887,325.8
		c0.247,0.248,0.247,0.651,0,0.901l-2.856,2.854c-0.248,0.249-0.652,0.249-0.9,0l-3.311-3.306c-0.247-0.249-0.247-0.654,0-0.904
		l2.858-2.854c0.246-0.247,0.654-0.247,0.901,0L464.887,325.8z"/>
	<path class="solid" stroke-linecap="round" stroke-linejoin="round" stroke-miterlimit="10" d="M469.745,320.938
		c0.249,0.248,0.249,0.655,0,0.904l-2.855,2.855c-0.248,0.245-0.653,0.245-0.9,0l-3.306-3.307c-0.249-0.247-0.249-0.655,0-0.903
		l2.856-2.857c0.243-0.247,0.651-0.247,0.9,0L469.745,320.938z"/>
	<path class="solid" stroke-linecap="round" stroke-linejoin="round" stroke-miterlimit="10" d="M474.605,316.079
		c0.247,0.247,0.247,0.655,0,0.902l-2.856,2.854c-0.248,0.249-0.651,0.249-0.901,0l-3.305-3.305c-0.25-0.249-0.25-0.656,0-0.904
		l2.854-2.855c0.249-0.248,0.652-0.248,0.901,0L474.605,316.079z"/>
	<path class="solid" stroke-linecap="round" stroke-linejoin="round" stroke-miterlimit="10" d="M479.465,311.219
		c0.249,0.248,0.249,0.654,0,0.903l-2.855,2.855c-0.25,0.248-0.654,0.248-0.902,0l-3.307-3.308c-0.245-0.247-0.245-0.654,0-0.902
		l2.857-2.856c0.247-0.246,0.652-0.246,0.9,0L479.465,311.219z"/>
	<path class="solid" stroke-linecap="round" stroke-linejoin="round" stroke-miterlimit="10" d="M484.324,306.358
		c0.248,0.248,0.248,0.656,0,0.9l-2.856,2.857c-0.248,0.246-0.652,0.246-0.9,0l-3.305-3.309c-0.25-0.247-0.25-0.65,0-0.9
		l2.854-2.854c0.248-0.249,0.652-0.249,0.9,0L484.324,306.358z"/>
	<path class="solid" stroke-linecap="round" stroke-linejoin="round" stroke-miterlimit="10" d="M489.188,301.499
		c0.242,0.248,0.242,0.654,0,0.901l-2.857,2.855c-0.247,0.248-0.655,0.248-0.903,0l-3.306-3.308c-0.248-0.246-0.248-0.652,0-0.899
		l2.855-2.856c0.249-0.248,0.652-0.248,0.9,0L489.188,301.499z"/>
	<path class="solid" stroke-linecap="round" stroke-linejoin="round" stroke-miterlimit="10" d="M494.046,296.639
		c0.248,0.25,0.248,0.652,0,0.903l-2.855,2.854c-0.249,0.249-0.655,0.249-0.903,0l-3.307-3.305c-0.248-0.249-0.248-0.653,0-0.901
		l2.857-2.856c0.245-0.246,0.654-0.246,0.899,0L494.046,296.639z"/>
	<path class="solid" stroke-linecap="round" stroke-linejoin="round" stroke-miterlimit="10" d="M498.904,291.78
		c0.249,0.248,0.249,0.653,0,0.899l-2.855,2.857c-0.246,0.248-0.654,0.248-0.901,0l-3.308-3.307c-0.247-0.247-0.247-0.655,0-0.9
		l2.854-2.857c0.25-0.247,0.656-0.247,0.905,0L498.904,291.78z"/>
	<path class="solid" stroke-linecap="round" stroke-linejoin="round" stroke-miterlimit="10" d="M508.161,282.524
		c0.247,0.248,0.247,0.653,0,0.9l-7.25,7.252c-0.251,0.249-0.655,0.249-0.906,0l-3.305-3.304c-0.248-0.251-0.248-0.657,0-0.902
		l7.251-7.255c0.246-0.248,0.654-0.248,0.902,0L508.161,282.524z"/>
	<path class="solid" stroke-linecap="round" stroke-linejoin="round" stroke-miterlimit="10" d="M462.787,338.467
		c0.249,0.247,0.249,0.654,0,0.902l-2.855,2.858c-0.247,0.246-0.652,0.246-0.9,0l-3.309-3.31c-0.25-0.245-0.25-0.654,0-0.9
		l2.856-2.857c0.248-0.249,0.654-0.249,0.902,0L462.787,338.467z"/>
	<path class="solid" stroke-linecap="round" stroke-linejoin="round" stroke-miterlimit="10" d="M467.505,333.754
		c0.248,0.245,0.248,0.65,0,0.898l-2.855,2.857c-0.249,0.248-0.656,0.248-0.904,0l-3.306-3.307c-0.249-0.249-0.249-0.653,0-0.901
		l2.855-2.856c0.248-0.247,0.652-0.247,0.9,0L467.505,333.754z"/>
	<path class="solid" stroke-linecap="round" stroke-linejoin="round" stroke-miterlimit="10" d="M472.218,329.036
		c0.249,0.247,0.249,0.654,0,0.903l-2.855,2.855c-0.248,0.249-0.653,0.249-0.899,0l-3.308-3.309c-0.248-0.248-0.248-0.653,0-0.901
		l2.857-2.856c0.247-0.248,0.65-0.248,0.9,0L472.218,329.036z"/>
	<path class="solid" stroke-linecap="round" stroke-linejoin="round" stroke-miterlimit="10" d="M476.936,324.322
		c0.248,0.245,0.248,0.652,0,0.9l-2.856,2.855c-0.248,0.249-0.653,0.249-0.9,0l-3.31-3.306c-0.247-0.248-0.247-0.655,0-0.904
		l2.857-2.856c0.246-0.246,0.654-0.246,0.902,0L476.936,324.322z"/>
	<path class="solid" stroke-linecap="round" stroke-linejoin="round" stroke-miterlimit="10" d="M481.651,319.604
		c0.249,0.25,0.249,0.652,0,0.9l-2.856,2.856c-0.247,0.248-0.655,0.248-0.902,0l-3.308-3.306c-0.247-0.248-0.247-0.651,0-0.901
		l2.857-2.855c0.247-0.248,0.654-0.248,0.9,0L481.651,319.604z"/>
	<path class="solid" stroke-linecap="round" stroke-linejoin="round" stroke-miterlimit="10" d="M486.367,314.888
		c0.246,0.249,0.246,0.656,0,0.904l-2.857,2.857c-0.248,0.244-0.652,0.244-0.9,0l-3.307-3.312c-0.248-0.245-0.248-0.652,0-0.899
		l2.855-2.857c0.248-0.247,0.654-0.247,0.9,0L486.367,314.888z"/>
	<path class="solid" stroke-linecap="round" stroke-linejoin="round" stroke-miterlimit="10" d="M491.083,310.175
		c0.248,0.245,0.248,0.653,0,0.899l-2.856,2.857c-0.249,0.248-0.652,0.248-0.902,0l-3.309-3.307c-0.245-0.248-0.245-0.654,0-0.903
		l2.856-2.856c0.25-0.248,0.656-0.248,0.904,0L491.083,310.175z"/>
	<path class="solid" stroke-linecap="round" stroke-linejoin="round" stroke-miterlimit="10" d="M495.801,305.458
		c0.246,0.248,0.246,0.653,0,0.9l-2.859,2.857c-0.247,0.247-0.654,0.247-0.901,0l-3.308-3.309c-0.249-0.247-0.249-0.651,0-0.899
		l2.855-2.856c0.25-0.248,0.657-0.248,0.904,0L495.801,305.458z"/>
	<path class="solid" stroke-linecap="round" stroke-linejoin="round" stroke-miterlimit="10" d="M500.514,300.743
		c0.247,0.245,0.247,0.654,0,0.901l-2.856,2.853c-0.246,0.25-0.653,0.25-0.901,0l-3.307-3.306c-0.247-0.248-0.247-0.652,0-0.901
		l2.856-2.856c0.248-0.247,0.652-0.247,0.901,0L500.514,300.743z"/>
	<path class="solid" stroke-linecap="round" stroke-linejoin="round" stroke-miterlimit="10" d="M513.446,287.81
		c0.248,0.249,0.248,0.652,0,0.901l-11.073,11.071c-0.247,0.252-0.653,0.252-0.899,0l-3.309-3.304c-0.247-0.249-0.247-0.656,0-0.903
		l11.07-11.072c0.25-0.247,0.657-0.247,0.904,0L513.446,287.81z"/>
	<path class="solid" stroke-linecap="round" stroke-linejoin="round" stroke-miterlimit="10" d="M453.338,347.919
		c0.248,0.247,0.248,0.653,0,0.899l-8.116,8.117c-0.25,0.249-0.653,0.249-0.902,0l-3.308-3.306c-0.248-0.248-0.248-0.656,0-0.903
		l8.116-8.115c0.248-0.247,0.655-0.247,0.901,0L453.338,347.919z"/>
	<path class="solid" stroke-linecap="round" stroke-linejoin="round" stroke-miterlimit="10" d="M445.572,345.114
		c0.248,0.245,0.248,0.653,0,0.9l-5.638,5.637c-0.247,0.248-0.654,0.248-0.901,0l-3.307-3.307c-0.248-0.248-0.248-0.656,0-0.903
		l5.636-5.636c0.248-0.25,0.655-0.25,0.902,0L445.572,345.114z"/>
	<path class="solid" stroke-linecap="round" stroke-linejoin="round" stroke-miterlimit="10" d="M439.764,340.449
		c0.251,0.248,0.251,0.652,0,0.9l-5.066,5.068c-0.244,0.243-0.652,0.243-0.899,0l-3.306-3.311c-0.25-0.248-0.25-0.652,0-0.9
		l5.062-5.068c0.25-0.247,0.655-0.247,0.905,0L439.764,340.449z"/>
	<path class="solid" stroke-linecap="round" stroke-linejoin="round" stroke-miterlimit="10" d="M483.597,279.631
		c-0.25-0.248-0.25-0.652,0-0.9l2.904-2.905c0.248-0.248,0.653-0.248,0.899,0l3.307,3.311c0.249,0.247,0.249,0.651,0,0.9l-2.9,2.903
		c-0.251,0.247-0.655,0.247-0.905,0L483.597,279.631z"/>
	<path class="solid" stroke-linecap="round" stroke-linejoin="round" stroke-miterlimit="10" d="M478.738,284.49
		c-0.246-0.247-0.246-0.656,0-0.902l2.904-2.901c0.246-0.248,0.653-0.248,0.901,0l3.307,3.305c0.248,0.25,0.248,0.653,0,0.9
		l-2.904,2.906c-0.247,0.247-0.651,0.247-0.9,0L478.738,284.49z"/>
	<path class="solid" stroke-linecap="round" stroke-linejoin="round" stroke-miterlimit="10" d="M473.882,289.349
		c-0.248-0.249-0.248-0.655,0-0.905l2.902-2.901c0.248-0.247,0.655-0.247,0.903,0l3.307,3.307c0.247,0.248,0.247,0.651,0,0.904
		l-2.904,2.899c-0.248,0.251-0.653,0.251-0.901,0L473.882,289.349z"/>
	<path class="solid" stroke-linecap="round" stroke-linejoin="round" stroke-miterlimit="10" d="M469.023,294.205
		c-0.248-0.25-0.248-0.653,0-0.903l2.903-2.902c0.248-0.248,0.653-0.248,0.9,0l3.307,3.305c0.249,0.25,0.249,0.657,0,0.903
		l-2.901,2.902c-0.247,0.248-0.655,0.248-0.9,0L469.023,294.205z"/>
	<path class="solid" stroke-linecap="round" stroke-linejoin="round" stroke-miterlimit="10" d="M464.165,299.062
		c-0.248-0.249-0.248-0.654,0-0.901l2.904-2.903c0.249-0.249,0.652-0.249,0.901,0l3.307,3.309c0.246,0.247,0.246,0.652,0,0.9
		l-2.902,2.904c-0.248,0.248-0.654,0.248-0.902,0L464.165,299.062z"/>
	<path class="solid" stroke-linecap="round" stroke-linejoin="round" stroke-miterlimit="10" d="M459.311,303.921
		c-0.251-0.249-0.251-0.656,0-0.903l2.899-2.901c0.249-0.249,0.656-0.249,0.905,0l3.305,3.305c0.249,0.249,0.249,0.653,0,0.9
		l-2.905,2.905c-0.247,0.248-0.652,0.248-0.899,0L459.311,303.921z"/>
	<path class="solid" stroke-linecap="round" stroke-linejoin="round" stroke-miterlimit="10" d="M454.452,308.777
		c-0.247-0.249-0.247-0.655,0-0.902l2.902-2.903c0.247-0.248,0.654-0.248,0.902,0l3.308,3.307c0.246,0.249,0.246,0.657,0,0.903
		l-2.905,2.903c-0.248,0.246-0.655,0.246-0.901,0L454.452,308.777z"/>
	<path class="solid" stroke-linecap="round" stroke-linejoin="round" stroke-miterlimit="10" d="M449.593,313.635
		c-0.248-0.248-0.248-0.652,0-0.901l2.904-2.904c0.249-0.248,0.652-0.248,0.9,0l3.306,3.311c0.249,0.244,0.249,0.65,0,0.9l-2.9,2.9
		c-0.25,0.249-0.655,0.249-0.901,0L449.593,313.635z"/>
	<path class="solid" stroke-linecap="round" stroke-linejoin="round" stroke-miterlimit="10" d="M444.735,318.492
		c-0.247-0.25-0.247-0.653,0-0.9l2.905-2.902c0.248-0.251,0.652-0.251,0.9-0.004l3.306,3.31c0.249,0.247,0.249,0.654,0,0.899
		l-2.901,2.904c-0.247,0.25-0.654,0.25-0.903,0L444.735,318.492z"/>
	<path class="solid" stroke-linecap="round" stroke-linejoin="round" stroke-miterlimit="10" d="M439.879,323.351
		c-0.249-0.247-0.249-0.654,0-0.902l2.901-2.902c0.247-0.247,0.656-0.247,0.904,0l3.306,3.307c0.246,0.249,0.246,0.653,0,0.901
		l-2.903,2.903c-0.25,0.247-0.653,0.247-0.901,0L439.879,323.351z"/>
	<path class="solid" stroke-linecap="round" stroke-linejoin="round" stroke-miterlimit="10" d="M435.021,328.209
		c-0.248-0.25-0.248-0.653,0-0.902l2.901-2.903c0.248-0.25,0.656-0.25,0.903,0l3.308,3.305c0.248,0.249,0.248,0.656,0,0.903
		l-2.906,2.902c-0.246,0.248-0.651,0.248-0.899,0L435.021,328.209z"/>
	<path class="solid" stroke-linecap="round" stroke-linejoin="round" stroke-miterlimit="10" d="M430.162,333.063
		c-0.248-0.247-0.248-0.651,0-0.9l2.905-2.903c0.247-0.248,0.65-0.248,0.9,0l3.306,3.306c0.248,0.248,0.248,0.655,0,0.903
		l-2.902,2.902c-0.246,0.248-0.655,0.248-0.901,0L430.162,333.063z"/>
	<path class="solid" stroke-linecap="round" stroke-linejoin="round" stroke-miterlimit="10" d="M425.307,337.924
		c-0.249-0.25-0.249-0.655,0-0.903l2.902-2.901c0.25-0.248,0.653-0.248,0.902,0l3.306,3.306c0.248,0.249,0.248,0.652,0,0.9
		l-2.901,2.906c-0.249,0.246-0.656,0.246-0.903,0L425.307,337.924z"/>
	<path class="solid" stroke-linecap="round" stroke-linejoin="round" stroke-miterlimit="10" d="M421.999,334.615
		c-0.248-0.247-0.248-0.652,0-0.9l3.026-3.026c0.247-0.248,0.655-0.248,0.903,0l1.202,1.201c0.249,0.247,0.249,0.653,0,0.903
		l-3.029,3.025c-0.247,0.248-0.651,0.248-0.899,0L421.999,334.615z"/>
	<path class="solid" stroke-linecap="round" stroke-linejoin="round" stroke-miterlimit="10" d="M427.016,329.602
		c-0.248-0.248-0.248-0.655,0-0.903l3.025-3.025c0.248-0.249,0.651-0.249,0.902,0l1.201,1.202c0.248,0.249,0.248,0.653,0,0.901
		l-3.026,3.025c-0.246,0.248-0.653,0.248-0.899,0L427.016,329.602z"/>
	<path class="solid" stroke-linecap="round" stroke-linejoin="round" stroke-miterlimit="10" d="M432.028,324.586
		c-0.247-0.248-0.247-0.655,0-0.902l3.029-3.026c0.247-0.249,0.652-0.249,0.9,0l1.204,1.201c0.247,0.249,0.247,0.655,0,0.902
		l-3.027,3.026c-0.248,0.251-0.655,0.251-0.903,0L432.028,324.586z"/>
	<path class="solid" stroke-linecap="round" stroke-linejoin="round" stroke-miterlimit="10" d="M437.044,319.569
		c-0.247-0.248-0.247-0.652,0-0.9l3.028-3.028c0.249-0.248,0.652-0.248,0.902,0l1.201,1.203c0.249,0.247,0.249,0.654,0,0.904
		l-3.028,3.025c-0.244,0.247-0.653,0.247-0.9,0L437.044,319.569z"/>
	<path class="solid" stroke-linecap="round" stroke-linejoin="round" stroke-miterlimit="10" d="M442.061,314.554
		c-0.248-0.248-0.248-0.651,0-0.901l3.027-3.025c0.247-0.246,0.654-0.246,0.901,0l1.205,1.203c0.247,0.249,0.244,0.653,0,0.9
		l-3.029,3.025c-0.248,0.249-0.653,0.249-0.9,0L442.061,314.554z"/>
	<path class="solid" stroke-linecap="round" stroke-linejoin="round" stroke-miterlimit="10" d="M447.076,309.542
		c-0.248-0.25-0.248-0.656,0-0.904l3.026-3.024c0.247-0.25,0.652-0.25,0.899,0l1.203,1.2c0.249,0.25,0.249,0.652,0,0.901
		l-3.026,3.025c-0.246,0.248-0.654,0.248-0.901,0L447.076,309.542z"/>
	<path class="solid" stroke-linecap="round" stroke-linejoin="round" stroke-miterlimit="10" d="M452.091,304.524
		c-0.248-0.247-0.248-0.655,0-0.899l3.029-3.029c0.246-0.248,0.651-0.248,0.899,0l1.202,1.203c0.249,0.248,0.249,0.653,0,0.9
		l-3.024,3.028c-0.251,0.247-0.655,0.247-0.906,0L452.091,304.524z"/>
	<path class="solid" stroke-linecap="round" stroke-linejoin="round" stroke-miterlimit="10" d="M457.104,299.51
		c-0.246-0.25-0.246-0.652,0-0.903l3.025-3.025c0.251-0.247,0.657-0.247,0.905,0l1.202,1.201c0.249,0.25,0.249,0.655,0,0.904
		l-3.027,3.023c-0.249,0.251-0.653,0.251-0.901,0L457.104,299.51z"/>
	<path class="solid" stroke-linecap="round" stroke-linejoin="round" stroke-miterlimit="10" d="M462.122,294.492
		c-0.25-0.246-0.25-0.652,0-0.899l3.024-3.025c0.249-0.25,0.655-0.25,0.905,0l1.199,1.202c0.251,0.245,0.251,0.652,0,0.901
		l-3.024,3.025c-0.251,0.247-0.653,0.247-0.902,0L462.122,294.492z"/>
	<path class="solid" stroke-linecap="round" stroke-linejoin="round" stroke-miterlimit="10" d="M467.138,289.48
		c-0.248-0.248-0.248-0.655,0-0.904l3.025-3.026c0.249-0.246,0.652-0.246,0.901,0l1.202,1.203c0.249,0.25,0.249,0.653,0,0.901
		l-3.025,3.027c-0.248,0.248-0.656,0.248-0.903,0L467.138,289.48z"/>
	<path class="solid" stroke-linecap="round" stroke-linejoin="round" stroke-miterlimit="10" d="M472.151,284.464
		c-0.25-0.249-0.25-0.652,0-0.903l3.028-3.026c0.247-0.249,0.652-0.249,0.9,0l1.202,1.202c0.247,0.249,0.247,0.653,0,0.902
		l-3.026,3.028c-0.247,0.247-0.654,0.247-0.902,0L472.151,284.464z"/>
	<path class="solid" stroke-linecap="round" stroke-linejoin="round" stroke-miterlimit="10" d="M477.168,279.449
		c-0.249-0.249-0.249-0.653,0-0.902l3.024-3.029c0.247-0.246,0.655-0.246,0.903,0.004l1.202,1.201c0.25,0.246,0.25,0.654,0,0.902
		l-3.027,3.026c-0.248,0.247-0.652,0.247-0.901,0L477.168,279.449z"/>
	<path class="solid" stroke-linecap="round" stroke-linejoin="round" stroke-miterlimit="10" d="M482.182,274.433
		c-0.246-0.245-0.246-0.653,0-0.902l3.025-3.026c0.249-0.247,0.657-0.247,0.904,0l1.203,1.204c0.245,0.248,0.245,0.652,0,0.9
		l-3.028,3.026c-0.248,0.248-0.652,0.248-0.901,0L482.182,274.433z"/>
	<path class="solid" stroke-linecap="round" stroke-linejoin="round" stroke-miterlimit="10" d="M487.199,269.419
		c-0.248-0.248-0.248-0.656,0-0.903l3.025-3.026c0.248-0.247,0.653-0.247,0.901,0l1.204,1.203c0.245,0.247,0.245,0.653,0,0.899
		l-3.026,3.029c-0.25,0.249-0.656,0.249-0.905,0L487.199,269.419z"/>
	<path class="solid" stroke-linecap="round" stroke-linejoin="round" stroke-miterlimit="10" d="M488.466,274.763
		c-0.248-0.247-0.248-0.653,0-0.9l5.064-5.066c0.248-0.249,0.655-0.249,0.9,0l3.309,3.306c0.249,0.249,0.249,0.655,0,0.903
		l-5.066,5.064c-0.248,0.249-0.651,0.249-0.902,0L488.466,274.763z"/>
	<path class="solid" stroke-linecap="round" stroke-linejoin="round" stroke-miterlimit="10" d="M458.072,353.854
		c0.247,0.248,0.247,0.655,0,0.903l-2.857,2.856c-0.247,0.249-0.652,0.249-0.9,0l-3.306-3.307c-0.249-0.248-0.249-0.655,0-0.903
		l2.855-2.855c0.247-0.249,0.653-0.249,0.9,0L458.072,353.854z"/>
	<path class="solid" stroke-linecap="round" stroke-linejoin="round" stroke-miterlimit="10" d="M462.73,349.195
		c0.249,0.249,0.249,0.653,0,0.901l-2.854,2.857c-0.249,0.247-0.653,0.247-0.901,0l-3.307-3.308c-0.247-0.248-0.247-0.654,0-0.902
		l2.857-2.855c0.247-0.248,0.651-0.248,0.899,0L462.73,349.195z"/>
	<path class="solid" stroke-linecap="round" stroke-linejoin="round" stroke-miterlimit="10" d="M467.391,344.536
		c0.247,0.249,0.247,0.652,0,0.902l-2.854,2.854c-0.249,0.248-0.655,0.248-0.902,0l-3.308-3.306c-0.248-0.248-0.248-0.653,0-0.901
		l2.854-2.854c0.25-0.249,0.655-0.249,0.904,0L467.391,344.536z"/>
	<path class="solid" stroke-linecap="round" stroke-linejoin="round" stroke-miterlimit="10" d="M502.215,309.713
		c0.248,0.248,0.248,0.653,0,0.901l-2.855,2.856c-0.249,0.248-0.653,0.248-0.902,0l-3.309-3.308c-0.245-0.247-0.245-0.654,0-0.899
		l2.855-2.855c0.249-0.25,0.655-0.25,0.904,0L502.215,309.713z"/>
	<path class="solid" stroke-linecap="round" stroke-linejoin="round" stroke-miterlimit="10" d="M506.977,304.951
		c0.247,0.247,0.247,0.653,0,0.901l-2.854,2.854c-0.25,0.248-0.654,0.248-0.903,0l-3.304-3.305c-0.249-0.25-0.249-0.655,0-0.905
		l2.854-2.855c0.249-0.246,0.652-0.246,0.9,0L506.977,304.951z"/>
	<path class="solid" stroke-linecap="round" stroke-linejoin="round" stroke-miterlimit="10" d="M511.038,300.891
		c0.248,0.248,0.248,0.651,0,0.9l-2.162,2.163c-0.249,0.247-0.656,0.247-0.903,0l-1.204-1.2c-0.244-0.253-0.244-0.655,0-0.904
		l2.164-2.163c0.247-0.249,0.654-0.249,0.902,0L511.038,300.891z"/>
	<path class="solid" stroke-linecap="round" stroke-linejoin="round" stroke-miterlimit="10" d="M514.912,297.018
		c0.246,0.247,0.246,0.652,0,0.9l-2.164,2.166c-0.247,0.247-0.655,0.247-0.904,0l-1.202-1.204c-0.248-0.247-0.248-0.655,0-0.902
		l2.162-2.164c0.249-0.246,0.656-0.246,0.905,0L514.912,297.018z"/>
	<path class="solid" stroke-linecap="round" stroke-linejoin="round" stroke-miterlimit="10" d="M512.804,294.914
		c0.249,0.248,0.249,0.653,0,0.899l-2.162,2.164c-0.248,0.247-0.652,0.247-0.9,0l-1.202-1.203c-0.248-0.248-0.248-0.653,0-0.9
		l2.162-2.164c0.248-0.247,0.655-0.247,0.903,0L512.804,294.914z"/>
	<path class="solid" stroke-linecap="round" stroke-linejoin="round" stroke-miterlimit="10" d="M518.783,293.146
		c0.249,0.246,0.249,0.655,0,0.898l-2.165,2.166c-0.248,0.249-0.652,0.249-0.901,0l-1.203-1.202c-0.247-0.249-0.247-0.655,0-0.903
		l2.164-2.162c0.248-0.25,0.655-0.25,0.901,0L518.783,293.146z"/>
	<path class="solid" stroke-linecap="round" stroke-linejoin="round" stroke-miterlimit="10" d="M497.437,314.492
		c0.247,0.247,0.247,0.652,0,0.9l-28.24,28.24c-0.25,0.249-0.656,0.249-0.905,0l-3.304-3.307c-0.25-0.247-0.25-0.651,0-0.899
		l28.239-28.242c0.247-0.247,0.655-0.247,0.902,0L497.437,314.492z"/>
</g>
<g>
	
		<rect x="617.301" y="174.901" transform="matrix(-0.7071 -0.7071 0.7071 -0.7071 985.7629 917.377)" class="solid" stroke-linecap="round" stroke-linejoin="round" stroke-miterlimit="10" width="131.152" height="159.259"/>
	<g>
		
			<line class="line" stroke-linecap="round" stroke-linejoin="round" stroke-miterlimit="10" x1="667.995" y1="355.823" x2="671.826" y2="351.991"/>
		
			<line class="line" stroke-linecap="round" stroke-linejoin="round" stroke-miterlimit="10" x1="667.119" y1="354.951" x2="670.957" y2="351.115"/>
		
			<line class="line" stroke-linecap="round" stroke-linejoin="round" stroke-miterlimit="10" x1="664.688" y1="352.516" x2="668.521" y2="348.685"/>
		
			<line class="line" stroke-linecap="round" stroke-linejoin="round" stroke-miterlimit="10" x1="663.815" y1="351.642" x2="667.646" y2="347.812"/>
		
			<line class="line" stroke-linecap="round" stroke-linejoin="round" stroke-miterlimit="10" x1="661.382" y1="349.21" x2="665.214" y2="345.376"/>
		
			<line class="line" stroke-linecap="round" stroke-linejoin="round" stroke-miterlimit="10" x1="660.508" y1="348.337" x2="664.342" y2="344.503"/>
		
			<line class="line" stroke-linecap="round" stroke-linejoin="round" stroke-miterlimit="10" x1="658.075" y1="345.903" x2="661.908" y2="342.072"/>
		
			<line class="line" stroke-linecap="round" stroke-linejoin="round" stroke-miterlimit="10" x1="657.203" y1="345.029" x2="661.033" y2="341.199"/>
		
			<line class="line" stroke-linecap="round" stroke-linejoin="round" stroke-miterlimit="10" x1="654.767" y1="342.598" x2="658.602" y2="338.764"/>
		
			<line class="line" stroke-linecap="round" stroke-linejoin="round" stroke-miterlimit="10" x1="653.896" y1="341.725" x2="657.729" y2="337.891"/>
		
			<line class="line" stroke-linecap="round" stroke-linejoin="round" stroke-miterlimit="10" x1="651.46" y1="339.288" x2="655.293" y2="335.457"/>
		
			<line class="line" stroke-linecap="round" stroke-linejoin="round" stroke-miterlimit="10" x1="650.587" y1="338.418" x2="654.422" y2="334.585"/>
		
			<line class="line" stroke-linecap="round" stroke-linejoin="round" stroke-miterlimit="10" x1="648.155" y1="335.982" x2="651.986" y2="332.149"/>
		
			<line class="line" stroke-linecap="round" stroke-linejoin="round" stroke-miterlimit="10" x1="647.281" y1="335.111" x2="651.114" y2="331.277"/>
		
			<line class="line" stroke-linecap="round" stroke-linejoin="round" stroke-miterlimit="10" x1="644.848" y1="332.676" x2="648.681" y2="328.844"/>
		
			<line class="line" stroke-linecap="round" stroke-linejoin="round" stroke-miterlimit="10" x1="643.975" y1="331.803" x2="647.808" y2="327.971"/>
		
			<line class="line" stroke-linecap="round" stroke-linejoin="round" stroke-miterlimit="10" x1="641.542" y1="329.37" x2="645.373" y2="325.537"/>
		
			<line class="line" stroke-linecap="round" stroke-linejoin="round" stroke-miterlimit="10" x1="640.668" y1="328.497" x2="644.501" y2="324.664"/>
		
			<line class="line" stroke-linecap="round" stroke-linejoin="round" stroke-miterlimit="10" x1="638.235" y1="326.064" x2="642.07" y2="322.231"/>
		
			<line class="line" stroke-linecap="round" stroke-linejoin="round" stroke-miterlimit="10" x1="637.363" y1="325.189" x2="641.194" y2="321.358"/>
		
			<line class="line" stroke-linecap="round" stroke-linejoin="round" stroke-miterlimit="10" x1="634.928" y1="322.758" x2="638.759" y2="318.923"/>
		
			<line class="line" stroke-linecap="round" stroke-linejoin="round" stroke-miterlimit="10" x1="634.056" y1="321.884" x2="637.888" y2="318.052"/>
		
			<line class="line" stroke-linecap="round" stroke-linejoin="round" stroke-miterlimit="10" x1="631.621" y1="319.448" x2="635.454" y2="315.617"/>
		
			<line class="line" stroke-linecap="round" stroke-linejoin="round" stroke-miterlimit="10" x1="630.746" y1="318.579" x2="634.579" y2="314.741"/>
		
			<line class="line" stroke-linecap="round" stroke-linejoin="round" stroke-miterlimit="10" x1="628.315" y1="316.143" x2="632.146" y2="312.311"/>
		
			<line class="line" stroke-linecap="round" stroke-linejoin="round" stroke-miterlimit="10" x1="627.441" y1="315.271" x2="631.271" y2="311.437"/>
		
			<line class="line" stroke-linecap="round" stroke-linejoin="round" stroke-miterlimit="10" x1="625.008" y1="312.836" x2="628.841" y2="309.004"/>
		
			<line class="line" stroke-linecap="round" stroke-linejoin="round" stroke-miterlimit="10" x1="624.133" y1="311.963" x2="627.967" y2="308.131"/>
		
			<line class="line" stroke-linecap="round" stroke-linejoin="round" stroke-miterlimit="10" x1="621.703" y1="309.529" x2="625.533" y2="305.697"/>
		
			<line class="line" stroke-linecap="round" stroke-linejoin="round" stroke-miterlimit="10" x1="620.83" y1="308.656" x2="624.659" y2="304.824"/>
		
			<line class="line" stroke-linecap="round" stroke-linejoin="round" stroke-miterlimit="10" x1="618.392" y1="306.224" x2="622.229" y2="302.392"/>
		
			<line class="line" stroke-linecap="round" stroke-linejoin="round" stroke-miterlimit="10" x1="617.521" y1="305.35" x2="621.354" y2="301.518"/>
		
			<line class="line" stroke-linecap="round" stroke-linejoin="round" stroke-miterlimit="10" x1="615.089" y1="302.917" x2="618.922" y2="299.082"/>
		
			<line class="line" stroke-linecap="round" stroke-linejoin="round" stroke-miterlimit="10" x1="614.214" y1="302.044" x2="618.048" y2="298.211"/>
		
			<line class="line" stroke-linecap="round" stroke-linejoin="round" stroke-miterlimit="10" x1="611.779" y1="299.608" x2="615.614" y2="295.776"/>
		
			<line class="line" stroke-linecap="round" stroke-linejoin="round" stroke-miterlimit="10" x1="610.906" y1="298.735" x2="614.738" y2="294.902"/>
		
			<line class="line" stroke-linecap="round" stroke-linejoin="round" stroke-miterlimit="10" x1="608.475" y1="296.303" x2="612.307" y2="292.47"/>
		
			<line class="line" stroke-linecap="round" stroke-linejoin="round" stroke-miterlimit="10" x1="607.602" y1="295.432" x2="611.433" y2="291.597"/>
		
			<line class="line" stroke-linecap="round" stroke-linejoin="round" stroke-miterlimit="10" x1="605.168" y1="292.995" x2="609" y2="289.164"/>
		
			<line class="line" stroke-linecap="round" stroke-linejoin="round" stroke-miterlimit="10" x1="604.294" y1="292.121" x2="608.127" y2="288.291"/>
		
			<line class="line" stroke-linecap="round" stroke-linejoin="round" stroke-miterlimit="10" x1="601.861" y1="289.69" x2="605.694" y2="285.857"/>
		
			<line class="line" stroke-linecap="round" stroke-linejoin="round" stroke-miterlimit="10" x1="600.989" y1="288.817" x2="604.82" y2="284.984"/>
		
			<line class="line" stroke-linecap="round" stroke-linejoin="round" stroke-miterlimit="10" x1="598.553" y1="286.385" x2="602.388" y2="282.551"/>
		
			<line class="line" stroke-linecap="round" stroke-linejoin="round" stroke-miterlimit="10" x1="597.682" y1="285.509" x2="601.515" y2="281.679"/>
		
			<line class="line" stroke-linecap="round" stroke-linejoin="round" stroke-miterlimit="10" x1="595.246" y1="283.077" x2="599.079" y2="279.243"/>
		
			<line class="line" stroke-linecap="round" stroke-linejoin="round" stroke-miterlimit="10" x1="594.377" y1="282.204" x2="598.208" y2="278.371"/>
		
			<line class="line" stroke-linecap="round" stroke-linejoin="round" stroke-miterlimit="10" x1="591.941" y1="279.769" x2="595.772" y2="275.938"/>
		
			<line class="line" stroke-linecap="round" stroke-linejoin="round" stroke-miterlimit="10" x1="591.066" y1="278.896" x2="594.899" y2="275.063"/>
		
			<line class="line" stroke-linecap="round" stroke-linejoin="round" stroke-miterlimit="10" x1="588.635" y1="276.463" x2="592.467" y2="272.629"/>
		
			<line class="line" stroke-linecap="round" stroke-linejoin="round" stroke-miterlimit="10" x1="587.762" y1="275.592" x2="591.593" y2="271.756"/>
		
			<line class="line" stroke-linecap="round" stroke-linejoin="round" stroke-miterlimit="10" x1="585.328" y1="273.155" x2="589.159" y2="269.324"/>
		
			<line class="line" stroke-linecap="round" stroke-linejoin="round" stroke-miterlimit="10" x1="584.454" y1="272.281" x2="588.286" y2="268.452"/>
		
			<line class="line" stroke-linecap="round" stroke-linejoin="round" stroke-miterlimit="10" x1="582.021" y1="269.85" x2="585.854" y2="266.018"/>
		
			<line class="line" stroke-linecap="round" stroke-linejoin="round" stroke-miterlimit="10" x1="581.149" y1="268.978" x2="584.98" y2="265.144"/>
	</g>
	<polygon class="solid" stroke-linecap="round" stroke-linejoin="round" stroke-miterlimit="10" points="
		716.256,175.296 690.898,185.624 668.956,175.709 	"/>
	<polygon class="line" stroke-linecap="round" stroke-linejoin="round" stroke-miterlimit="10" points="
		692.813,151.854 668.956,175.709 716.256,175.296 	"/>
	
		<rect x="633.736" y="283.827" transform="matrix(-0.7071 -0.7071 0.7071 -0.7071 936.1078 964.324)" class="solid" stroke-linecap="round" stroke-linejoin="round" stroke-miterlimit="10" width="68.065" height="8.927"/>
	
		<rect x="663.907" y="284.847" transform="matrix(-0.7071 -0.7071 0.7071 -0.7071 966.8495 976.2478)" class="line" stroke-linecap="round" stroke-linejoin="round" stroke-miterlimit="10" width="43.411" height="6.071"/>
</g>
<g>
	
		<rect x="200.303" y="51.231" transform="matrix(0.7071 -0.7071 0.7071 0.7071 -1.6331 198.6785)" class="solid" stroke-linecap="round" stroke-linejoin="round" stroke-miterlimit="10" width="77.394" height="100.159"/>
	<path class="line" stroke-linecap="round" stroke-linejoin="round" stroke-miterlimit="10" d="M179.156,90.331
		c0,0-1.686-1.688-0.408-2.965c1.278-1.275,2.965,0.41,2.965,0.41s5.937,5.937,7.123,7.125c1.73,1.729-0.228,3.515-1.871,1.871
		c-1.123-1.122-3.967-3.967-4.836-4.836"/>
	
		<rect x="196.097" y="85.539" transform="matrix(0.7071 -0.7071 0.7071 0.7071 1.162 179.9556)" class="solid" stroke-linecap="round" stroke-linejoin="round" stroke-miterlimit="10" width="43.41" height="6.073"/>
	
		<line class="line" stroke-linecap="round" stroke-linejoin="round" stroke-miterlimit="10" x1="211.19" y1="112.661" x2="248.95" y2="74.902"/>
	
		<line class="line" stroke-linecap="round" stroke-linejoin="round" stroke-miterlimit="10" x1="213.019" y1="114.487" x2="249.272" y2="78.232"/>
	
		<line class="line" stroke-linecap="round" stroke-linejoin="round" stroke-miterlimit="10" x1="214.845" y1="116.314" x2="252.603" y2="78.553"/>
	
		<line class="line" stroke-linecap="round" stroke-linejoin="round" stroke-miterlimit="10" x1="216.67" y1="118.14" x2="254.429" y2="80.381"/>
	
		<line class="line" stroke-linecap="round" stroke-linejoin="round" stroke-miterlimit="10" x1="218.497" y1="119.965" x2="257.759" y2="80.704"/>
	
		<line class="line" stroke-linecap="round" stroke-linejoin="round" stroke-miterlimit="10" x1="220.323" y1="121.792" x2="258.081" y2="84.033"/>
	
		<line class="line" stroke-linecap="round" stroke-linejoin="round" stroke-miterlimit="10" x1="222.15" y1="123.619" x2="260.66" y2="85.109"/>
	
		<line class="line" stroke-linecap="round" stroke-linejoin="round" stroke-miterlimit="10" x1="223.976" y1="125.445" x2="260.231" y2="89.188"/>
	
		<line class="line" stroke-linecap="round" stroke-linejoin="round" stroke-miterlimit="10" x1="225.803" y1="127.271" x2="263.562" y2="89.513"/>
	
		<line class="line" stroke-linecap="round" stroke-linejoin="round" stroke-miterlimit="10" x1="227.628" y1="129.097" x2="245.397" y2="111.329"/>
	
		<line class="line" stroke-linecap="round" stroke-linejoin="round" stroke-miterlimit="10" x1="232.319" y1="133.789" x2="270.078" y2="96.029"/>
	
		<line class="line" stroke-linecap="round" stroke-linejoin="round" stroke-miterlimit="10" x1="234.146" y1="135.615" x2="270.401" y2="99.358"/>
	
		<line class="line" stroke-linecap="round" stroke-linejoin="round" stroke-miterlimit="10" x1="235.972" y1="137.441" x2="273.431" y2="99.981"/>
	
		<line class="line" stroke-linecap="round" stroke-linejoin="round" stroke-miterlimit="10" x1="237.797" y1="139.269" x2="276.609" y2="100.457"/>
	
		<line class="line" stroke-linecap="round" stroke-linejoin="round" stroke-miterlimit="10" x1="239.624" y1="141.093" x2="277.384" y2="103.334"/>
	
		<line class="line" stroke-linecap="round" stroke-linejoin="round" stroke-miterlimit="10" x1="241.45" y1="142.92" x2="278.308" y2="106.062"/>
	
		<line class="line" stroke-linecap="round" stroke-linejoin="round" stroke-miterlimit="10" x1="243.276" y1="144.747" x2="281.035" y2="106.987"/>
	
		<line class="line" stroke-linecap="round" stroke-linejoin="round" stroke-miterlimit="10" x1="245.103" y1="146.571" x2="269.335" y2="122.343"/>
</g>
<g>
	<path class="solid" stroke-linecap="round" stroke-linejoin="round" stroke-miterlimit="10" d="M436.33,81.752
		c1.639,3.933,0.381,8.538-4.194,8.188c-6.902-0.534-8.784-1.807-9.127-2.635c-0.347-0.827,0.076-3.06,4.557-8.337
		C430.532,75.471,434.691,77.819,436.33,81.752z"/>
	<path class="solid" stroke-linecap="round" stroke-linejoin="round" stroke-miterlimit="10" d="M441.85,77.177
		c-1.945,3.786-6.277,5.796-8.959,2.074c-4.044-5.623-4.288-7.878-3.874-8.676c0.41-0.799,2.385-1.915,9.312-1.895
		C442.912,68.693,443.799,73.386,441.85,77.177z"/>
</g>
<g>
	<path class="solid" stroke-linecap="round" stroke-linejoin="round" stroke-miterlimit="10" d="M378.997,178.088
		c-5.074-5.074-8.119-6.744-9.755-5.583l-0.013-0.007l-0.105,0.105c-0.107,0.09-0.211,0.189-0.306,0.306l-54.357,54.355
		c-0.109,0.09-0.203,0.188-0.289,0.289l-0.115,0.115l0.008,0.014c-1.161,1.636,0.509,4.68,5.583,9.754l11.807-11.806h-0.001
		l35.738-35.737l0,0L378.997,178.088z"/>
	<path class="solid" stroke-linecap="round" stroke-linejoin="round" stroke-miterlimit="10" d="M331.454,225.631
		c0,0-10.183,0.022-14.408,0.678c-4.971,0.771-4.637,3.89,2.602,11.128L331.454,225.631z"/>
	<path class="solid" stroke-linecap="round" stroke-linejoin="round" stroke-miterlimit="10" d="M367.191,189.894
		c0,0,0.023-10.182,0.677-14.407c0.771-4.971,3.892-4.636,11.129,2.602L367.191,189.894z"/>
	<path class="solid" stroke-linecap="round" stroke-linejoin="round" stroke-miterlimit="10" d="M348.228,268.771
		l4.77,5.299c1.707,1.896,4.579,1.972,6.384,0.168l56.419-56.417c1.801-1.804,1.725-4.677-0.172-6.383l-5.298-4.77L348.228,268.771z
		"/>
	<path class="solid" stroke-linecap="round" stroke-linejoin="round" stroke-miterlimit="10" d="M340.138,216.945
		c0,0-3.726-3.972,5.288-12.983c9.013-9.013,12.643-4.945,12.643-4.945L340.138,216.945z"/>
	<g>
		<path class="solid" stroke-linecap="round" stroke-linejoin="round" stroke-miterlimit="10" d="
			M348.537,208.155c-7.988-9.454-13.052-21.238-12.992-32.424c0.055-10.141,3.518-20.284,10.01-29.335
			c7.342-10.23,17.954-18.197,29.886-22.437c12.969-4.604,26.316-4.477,38.606,0.368c13.864,5.467,26.404,14.701,40.659,29.942
			c9.661,10.329,15.826,21.705,18.321,33.812c3.377,16.381,0.882,34.186-7.212,51.491c-5.648,12.08-14.038,23.839-24.104,33.904
			c-2.576,2.577-5.26,5.041-8.041,7.373c-8.964,7.525-18.099,13.956-27.149,19.118c-10.823,6.173-21.226,10.323-30.909,12.335
			c-18.614,3.864-39.477-0.386-54.444-11.093c-11.744-8.396-21.586-19.379-31.104-29.999c-6.923-7.727-14.084-15.714-21.856-22.551
			c-8.867-7.806-22.271-19.596-35.958-18.818c-6.289,0.354-14.549,4.168-19.641,9.064l-2.573-2.676
			c5.758-5.538,14.806-9.687,22.004-10.094c15.204-0.861,29.296,11.533,38.619,19.734c7.939,6.985,15.173,15.056,22.169,22.861
			c9.385,10.472,19.088,21.298,30.5,29.462c14.152,10.122,33.895,14.135,51.529,10.474c9.875-2.05,30.337-8.759,56.427-30.66
			c13.229-11.103,24.297-25.312,31.174-40.009c7.748-16.574,10.148-33.577,6.938-49.168c-2.356-11.429-8.21-22.205-17.4-32.028
			c-13.862-14.818-25.983-23.77-39.311-29.023c-11.441-4.516-23.891-4.626-36.004-0.323c-11.222,3.986-21.204,11.48-28.11,21.104
			c-6.042,8.42-9.262,17.822-9.312,27.188c-0.059,10.438,4.161,20.678,11.677,29.571"/>
	</g>
	<path class="solid" stroke-linecap="round" stroke-linejoin="round" stroke-miterlimit="10" d="M475.149,102.928
		l-9.622-8.748c0,0-1.843-0.782-3.371,0.749L349.321,207.763L238.237,318.847c-1.53,1.533-0.749,3.372-0.749,3.372l8.748,9.621
		L475.149,102.928z"/>
	<g>
		<path class="solid" stroke-linecap="round" stroke-linejoin="round" stroke-miterlimit="10" d="
			M248.075,332.732c-2.505-0.49-3.077-2.366-1.273-4.173l225.036-225.034c1.805-1.806,3.727-1.241,4.271,1.251l5.497,25.096
			c0.545,2.492-0.484,6.007-2.29,7.812L281.617,335.385c-1.805,1.802-5.33,2.876-7.833,2.387L248.075,332.732z"/>
		<path class="solid" stroke-linecap="round" stroke-linejoin="round" stroke-miterlimit="10" d="
			M248.075,332.732c-2.505-0.49-3.077-2.366-1.273-4.173l225.036-225.034c1.805-1.806,3.727-1.241,4.271,1.251l5.497,25.096
			c0.545,2.492-0.484,6.007-2.29,7.812L281.617,335.385c-1.805,1.802-5.33,2.876-7.833,2.387L248.075,332.732z"/>
	</g>
	
		<line class="solid" stroke-linecap="round" stroke-linejoin="round" stroke-miterlimit="10" x1="273.784" y1="337.771" x2="481.644" y2="129.91"/>
	<g>
		<path class="solid" d="M380.874,232.892c-0.268,0.302-0.464,0.56-0.594,0.771c-0.129,0.209-0.171,0.337-0.126,0.383
			c0.019,0.017,0.042,0.027,0.075,0.027c0.06,0,0.146-0.037,0.254-0.106c0.157-0.099,0.334-0.228,0.53-0.378
			c0.193-0.149,0.355-0.285,0.482-0.404c-0.019,0.05-0.037,0.092-0.054,0.13c-0.015,0.04-0.031,0.076-0.05,0.11
			c-0.108,0.209-0.232,0.407-0.375,0.606c-0.23,0.316-0.397,0.541-0.508,0.678c-0.16,0.192-0.355,0.403-0.588,0.636
			c-0.195,0.196-0.439,0.424-0.727,0.677c-0.275,0.242-0.483,0.437-0.628,0.581c-0.129,0.128-0.372,0.395-0.733,0.798
			c-0.19,0.213-0.352,0.382-0.472,0.503c-0.334,0.335-0.711,0.656-1.136,0.967c-0.172,0.126-0.35,0.248-0.533,0.364
			c-0.338,0.219-0.604,0.368-0.793,0.45c-0.103,0.042-0.186,0.064-0.254,0.064c-0.059,0-0.107-0.017-0.141-0.052
			c-0.087-0.086,0.017-0.348,0.313-0.784c0.32-0.469,0.781-1.007,1.379-1.605c0.283-0.282,0.532-0.521,0.74-0.703
			c0.453-0.404,0.731-0.655,0.833-0.758c0.185-0.184,0.373-0.383,0.565-0.599c0.422-0.475,0.718-0.796,0.878-0.957
			c0.395-0.394,0.712-0.688,0.952-0.885C380.28,233.316,380.518,233.144,380.874,232.892 M381.496,233.185h0.004 M378.873,234.131
			c0.067,0.068-0.029,0.285-0.292,0.647c-0.261,0.364-0.608,0.763-1.044,1.201c-0.031-0.033-0.012-0.112,0.051-0.234
			c0.039-0.072,0.131-0.217,0.282-0.436c0.134-0.191,0.299-0.402,0.497-0.625C378.562,234.457,378.73,234.274,378.873,234.131"/>
	</g>
	<polygon class="solid" stroke-linecap="round" stroke-linejoin="round" stroke-miterlimit="10" points="
		475.477,130.551 273.641,332.386 253.12,327.61 470.263,110.469 	"/>
	<path class="solid" stroke-linecap="round" stroke-linejoin="round" stroke-miterlimit="10" d="M211.174,235.325
		c-2.646,2.644-6.612-0.009-14.702,8.08l4.591,4.594l4.592,4.592c8.093-8.091,5.438-12.061,8.081-14.702L211.174,235.325z"/>
	
		<line class="solid" stroke-linecap="round" stroke-linejoin="round" stroke-miterlimit="10" x1="199.01" y1="245.946" x2="192.452" y2="252.507"/>
	
		<line class="solid" stroke-linecap="round" stroke-linejoin="round" stroke-miterlimit="10" x1="203.249" y1="250.186" x2="196.689" y2="256.745"/>
</g>
<g>
	<path class="solid" stroke-linecap="round" stroke-linejoin="round" stroke-miterlimit="10" d="M540.798,237.481
		c16.23,16.231,19.538,15.028,27.097,7.475c7.554-7.556,8.754-10.862-7.477-27.096c-16.233-16.232-19.542-15.03-27.097-7.476
		C525.768,217.942,524.563,221.248,540.798,237.481z"/>
	<g>
		<path class="solid" stroke-linecap="round" stroke-linejoin="round" stroke-miterlimit="10" d="M559.299,236.27
			c0.09-0.085,0.199-0.266,0.333-0.535c0.132-0.271,0.272-0.482,0.421-0.628c0.241-0.244,0.521-0.395,0.841-0.452
			c0.18-0.033,0.388-0.037,0.621-0.013c-0.022,0.29-0.02,0.525,0.013,0.703c0.056,0.321,0.198,0.596,0.429,0.824
			c0.251,0.253,0.544,0.409,0.887,0.468c0.341,0.062,0.629,0.029,0.861-0.097c0.166,0.318,0.294,0.696,0.388,1.132
			c0.132,0.658,0.07,1.117-0.187,1.376c-0.103,0.102-0.279,0.211-0.523,0.327c-0.244,0.115-0.431,0.232-0.556,0.357
			c-0.123,0.124-0.234,0.306-0.33,0.537c-0.096,0.23-0.195,0.398-0.297,0.501c-0.312,0.311-0.878,0.351-1.699,0.127
			c-0.814-0.22-1.473-0.582-1.972-1.08c-0.464-0.465-0.729-0.955-0.789-1.474c-0.066-0.521,0.073-0.954,0.423-1.303
			c0.148-0.146,0.356-0.295,0.628-0.445C559.061,236.448,559.231,236.341,559.299,236.27z M559.003,234.124
			c0.127,0.126,0.234,0.294,0.326,0.504c0.093,0.208,0.138,0.439,0.138,0.695c-0.004,0.221-0.041,0.401-0.112,0.548
			c-0.048,0.092-0.134,0.213-0.264,0.364c-0.293-0.303-0.473-0.643-0.54-1.012c-0.066-0.372,0.036-0.773,0.308-1.209
			c0.033,0.017,0.062,0.036,0.082,0.051C558.962,234.086,558.983,234.104,559.003,234.124z"/>
	</g>
</g>
<g>
	
		<rect x="344.681" y="376.021" transform="matrix(0.7071 -0.7071 0.7071 0.7071 -188.3721 395.343)" class="solid" stroke-linecap="round" stroke-linejoin="round" stroke-miterlimit="10" width="76.732" height="98.083"/>
	<path class="solid" stroke-linecap="round" stroke-linejoin="round" stroke-miterlimit="10" d="M372.155,410.562
		l1.09,2.292c-5.674,0.187-7.74,1.729-7.74,1.729s-0.113-3.345-6.688-4.96c-1.127-2.782-0.377-3.381-0.564-5
		c-0.188-1.613,1.278-1.951,1.051-2.779c-0.227-0.826,0.19-2.592,1.769-2.365c0.299-1.43,1.312-1.917,2.142-1.618
		c0.826,0.302,1.353-0.749,2.479-0.224c0,0-1.276,0.224-0.751,1.053c1.354,0.526,4.059,1.2,4.283,2.478
		c0.227,1.276,2.779,0.677,2.931,1.353c0.15,0.679-0.45,1.806-0.45,1.806l0.45,0.601c0,0-1.166,1.166-2.066,1.014
		c0,0,1.579,0.901,2.629-0.075l0.304,0.679l1.126,0.448l-0.074,1.43C374.073,408.42,373.396,409.771,372.155,410.562z"/>
	
		<line class="line" stroke-linecap="round" stroke-linejoin="round" stroke-miterlimit="10" x1="368.838" y1="402.884" x2="369.418" y2="403.464"/>
	<path class="line" stroke-linecap="round" stroke-linejoin="round" stroke-miterlimit="10" d="M365.909,406.972
		c0,0-1.531-0.934-2.033,0.271c-0.502,1.202,1.705,3.405,3.384,2.027"/>
	
		<rect x="358.314" y="414.065" transform="matrix(0.7072 -0.7071 0.7071 0.7072 -185.5311 390.377)" class="solid" stroke-linecap="round" stroke-linejoin="round" stroke-miterlimit="10" width="40.385" height="10.202"/>
	
		<rect x="366.279" y="422.031" transform="matrix(0.7071 -0.7071 0.7071 0.7071 -188.8334 398.3906)" class="solid" stroke-linecap="round" stroke-linejoin="round" stroke-miterlimit="10" width="40.384" height="10.201"/>
	
		<rect x="384.872" y="429.997" transform="matrix(0.7073 -0.707 0.707 0.7073 -192.1259 406.2203)" class="solid" stroke-linecap="round" stroke-linejoin="round" stroke-miterlimit="10" width="19.132" height="10.201"/>
	
		<rect x="382.211" y="437.961" transform="matrix(0.7071 -0.7071 0.7071 0.7071 -195.4329 414.3436)" class="solid" stroke-linecap="round" stroke-linejoin="round" stroke-miterlimit="10" width="40.386" height="10.203"/>
	
		<rect x="335.996" y="392.517" transform="matrix(0.7071 -0.7071 0.7071 0.7071 -175.86 366.4235)" class="solid" stroke-linecap="round" stroke-linejoin="round" stroke-miterlimit="10" width="36.772" height="5.952"/>
	
		<rect x="381.517" y="455.632" transform="matrix(0.7071 -0.7071 0.7071 0.7071 -201.513 426.9772)" class="solid" stroke-linecap="round" stroke-linejoin="round" stroke-miterlimit="10" width="66.313" height="2.23"/>
</g>
<rect x="584.124" y="353.473" transform="matrix(0.9894 0.1453 -0.1453 0.9894 60.2938 -83.4905)" class="solid" stroke-linecap="round" stroke-linejoin="round" stroke-miterlimit="10" width="34.859" height="34.86"/>
<rect x="204.822" y="354.29" transform="matrix(-0.3685 -0.9296 0.9296 -0.3685 -41.4286 715.2962)" class="solid" stroke-linecap="round" stroke-linejoin="round" stroke-miterlimit="10" width="34.859" height="34.861"/>
<rect x="594.828" y="374.987" transform="matrix(0.9117 0.4108 -0.4108 0.9117 215.23 -216.861)" class="solid" stroke-linecap="round" stroke-linejoin="round" stroke-miterlimit="10" width="34.86" height="34.86"/>
<g>
	<path class="solid" stroke-linecap="round" stroke-linejoin="round" stroke-miterlimit="10" d="M257.006,379.915
		c-0.911-1.264-1.792-2.491-16.03,7.74c-5.979,4.294-20.478,14.714-20.478,14.714l-0.081,0.414l-0.466-0.021
		c-19.752,14.195-19.021,15.216-17.96,16.691c1.058,1.472,1.79,2.49,21.543-11.703l0.129-0.45l0.419,0.057
		c0,0,14.497-10.421,20.479-14.715C258.795,382.41,257.941,381.218,257.006,379.915z"/>
	
		<line class="line" stroke-linecap="round" stroke-linejoin="round" stroke-miterlimit="10" x1="220.417" y1="402.783" x2="223.663" y2="407.3"/>
	<path class="line" stroke-linecap="round" stroke-linejoin="round" stroke-miterlimit="10" d="M203.327,415.716
		c0,0-0.717-0.835,0.919-2.011c1.639-1.176,14.309-10.282,14.309-10.282"/>
</g>
<g>
	<path class="solid" stroke-linecap="round" stroke-linejoin="round" stroke-miterlimit="10" d="M147.037,169.211
		c0.707-1.39,1.389-2.738-14.255-10.656c-6.569-3.324-22.5-11.385-22.5-11.385l-0.404,0.118l-0.195-0.421
		c-21.705-10.986-22.271-9.864-23.09-8.245s-1.387,2.738,20.315,13.723l0.458-0.092l0.144,0.396c0,0,15.929,8.062,22.5,11.388
		C145.652,171.952,146.315,170.645,147.037,169.211z"/>
	
		<line class="line" stroke-linecap="round" stroke-linejoin="round" stroke-miterlimit="10" x1="109.878" y1="147.288" x2="107.366" y2="152.253"/>
	<path class="line" stroke-linecap="round" stroke-linejoin="round" stroke-miterlimit="10" d="M90.523,138.085
		c0,0,0.409-1.021,2.208-0.11c1.799,0.911,15.721,7.956,15.721,7.956"/>
</g>
<g>
	<path class="solid" stroke-linecap="round" stroke-linejoin="round" stroke-miterlimit="10" d="M263.879,386.311
		c-1.069-1.136-2.108-2.235-14.863,9.791c-5.356,5.051-18.347,17.299-18.347,17.299l-0.026,0.422l-0.464,0.039
		c-17.699,16.688-16.838,17.602-15.592,18.921c1.244,1.321,2.106,2.235,19.803-14.451l0.069-0.462h0.421
		c0,0,12.991-12.248,18.349-17.3C265.985,388.542,264.979,387.479,263.879,386.311z"/>
	
		<line class="line" stroke-linecap="round" stroke-linejoin="round" stroke-miterlimit="10" x1="230.643" y1="413.822" x2="234.459" y2="417.869"/>
	<path class="line" stroke-linecap="round" stroke-linejoin="round" stroke-miterlimit="10" d="M215.416,428.901
		c0,0-0.821-0.729,0.646-2.113c1.466-1.384,12.819-12.087,12.819-12.087"/>
</g>
<g>
	<path class="solid" stroke-linecap="round" stroke-linejoin="round" stroke-miterlimit="10" d="M628.152,179.556
		c0.247-0.248,0.653-0.248,0.9,0l7.299,7.298c0.246,0.248,0.66,0.647,0.913,0.887c0,0,0.636,0.598-2.087,3.322
		c-2.725,2.724-3.342,2.108-3.342,2.108c-0.247-0.249-0.65-0.654-0.899-0.902l-7.298-7.297c-0.248-0.248-0.248-0.654,0-0.901
		L628.152,179.556z"/>
	
		<circle class="solid" stroke-linecap="round" stroke-linejoin="round" stroke-miterlimit="10" cx="610.132" cy="166.017" r="22.637"/>
	<circle class="reverse-solid" cx="610.131" cy="166.016" r="19.215"/>
	<path class="reverse-line" stroke-linecap="round" stroke-linejoin="round" stroke-miterlimit="10" d="M598.779,177.366
		c6.271,6.272,16.434,6.272,22.704,0"/>
</g>
<g>
	
		<path fill-rule="evenodd" clip-rule="evenodd" class="solid" stroke-linecap="round" stroke-linejoin="round" stroke-miterlimit="10" d="
		M172.009,165.602l8.081-15.706c1.149-2.233,3.988-3.293,6.225-2.142l40.397,20.785c2.234,1.149,3.024,4.076,1.874,6.312
		l-8.081,15.704c-1.152,2.235-3.897,3.117-6.134,1.967l-40.396-20.787C171.738,170.585,170.856,167.838,172.009,165.602z"/>
	
		<circle fill-rule="evenodd" clip-rule="evenodd" class="solid" stroke-linecap="round" stroke-linejoin="round" stroke-miterlimit="10" cx="221.304" cy="180.922" r="3.097"/>
	
		<path fill-rule="evenodd" clip-rule="evenodd" class="solid" stroke-linecap="round" stroke-linejoin="round" stroke-miterlimit="10" d="
		M220.153,180.757l0.439-0.852c0.182-0.354,0.615-0.492,0.969-0.309l0.852,0.436c0.354,0.184,0.493,0.615,0.311,0.969l-0.438,0.854
		c-0.182,0.354-0.616,0.492-0.969,0.31l-0.852-0.438C220.109,181.543,219.972,181.11,220.153,180.757z"/>
	
		<path fill-rule="evenodd" clip-rule="evenodd" class="solid" stroke-linecap="round" stroke-linejoin="round" stroke-miterlimit="10" d="
		M178.223,161.384l2.229-4.333c0.143-0.277,0.48-0.385,0.754-0.242l0.249,0.126c0.274,0.143,0.382,0.479,0.24,0.755l-2.23,4.335
		c-0.142,0.275-0.477,0.383-0.752,0.241l-0.249-0.127C178.188,161.995,178.08,161.657,178.223,161.384z"/>
	
		<rect x="187.867" y="150.807" transform="matrix(-0.4576 0.8891 -0.8891 -0.4576 443.7979 69.6573)" fill-rule="evenodd" clip-rule="evenodd" class="solid" stroke-linecap="round" stroke-linejoin="round" stroke-miterlimit="10" width="25.573" height="38.755"/>
</g>
<g>
	<polygon class="solid" stroke-linecap="round" stroke-linejoin="round" stroke-miterlimit="10" points="
		574.21,48.024 576.181,45.6 577.816,42.723 578.261,43.29 577.276,47.623 577.273,49.532 574.21,51.375 	"/>
	<path class="solid" stroke-linecap="round" stroke-linejoin="round" stroke-miterlimit="10" d="M549.82,110.61
		l24.39-62.586c0,0,0.274,1.248,1.1,0.887c0,0,0.321,0.922,1.235,0.553c0,0,0.176,0.61,0.729,0.068l-23.796,61.058L549.82,110.61z"
		/>
	<path class="solid" stroke-linecap="round" stroke-linejoin="round" stroke-miterlimit="10" d="M546.811,118.333
		c-0.13,0.328,0.034,0.7,0.361,0.828l1.98,0.772c0.328,0.126,0.7-0.036,0.825-0.364l1.983-5.082
		c0.127-0.328-0.034-0.698-0.363-0.825l-1.98-0.774c-0.324-0.127-0.697,0.036-0.823,0.363L546.811,118.333z"/>
	
		<rect x="548.908" y="109.733" transform="matrix(-0.9321 -0.3623 0.3623 -0.9321 1022.7661 418.345)" class="solid" stroke-linecap="round" stroke-linejoin="round" stroke-miterlimit="10" width="3.399" height="7.086"/>
	<path class="solid" stroke-linecap="round" stroke-linejoin="round" stroke-miterlimit="10" d="M572.205,62.53"
		/>
	<polyline class="solid" stroke-linecap="round" stroke-linejoin="round" stroke-miterlimit="10" points="
		578.261,43.29 578.726,41.117 577.816,42.723 	"/>
	
		<line class="solid" stroke-linecap="round" stroke-linejoin="round" stroke-miterlimit="10" x1="551.466" y1="115.757" x2="548.296" y2="114.521"/>
	
		<line class="solid" stroke-linecap="round" stroke-linejoin="round" stroke-miterlimit="10" x1="552.816" y1="112.29" x2="549.647" y2="111.056"/>
</g>
<g>
	<polygon class="solid" stroke-linecap="round" stroke-linejoin="round" stroke-miterlimit="10" points="
		92.227,198.708 89.206,197.911 85.912,197.608 86.246,196.97 90.597,196.081 92.34,195.296 95.25,196.97 	"/>
	<path class="solid" stroke-linecap="round" stroke-linejoin="round" stroke-miterlimit="10" d="M159.302,195.138
		l-67.075,3.57c0,0,1.024-0.764,0.354-1.366c0,0,0.709-0.672-0.004-1.354c0,0,0.481-0.41-0.237-0.692l65.437-3.483L159.302,195.138z
		"/>
	<path class="solid" stroke-linecap="round" stroke-linejoin="round" stroke-miterlimit="10" d="M167.581,194.697
		c0.351-0.019,0.622-0.32,0.603-0.671l-0.113-2.123c-0.019-0.349-0.32-0.619-0.673-0.602l-5.447,0.29
		c-0.349,0.02-0.62,0.319-0.602,0.671l0.114,2.123c0.016,0.35,0.318,0.62,0.669,0.604L167.581,194.697z"/>
	
		<rect x="159.704" y="189.781" transform="matrix(0.0537 0.9986 -0.9986 0.0537 345.7871 21.7747)" class="solid" stroke-linecap="round" stroke-linejoin="round" stroke-miterlimit="10" width="3.402" height="7.085"/>
	<path class="solid" stroke-linecap="round" stroke-linejoin="round" stroke-miterlimit="10" d="M106.269,194.556
		"/>
	<polygon class="solid" stroke-linecap="round" stroke-linejoin="round" stroke-miterlimit="10" points="
		86.246,196.97 84.072,197.44 85.912,197.608 	"/>
	
		<line class="solid" stroke-linecap="round" stroke-linejoin="round" stroke-miterlimit="10" x1="163.312" y1="191.519" x2="163.495" y2="194.915"/>
	
		<line class="solid" stroke-linecap="round" stroke-linejoin="round" stroke-miterlimit="10" x1="159.599" y1="191.715" x2="159.78" y2="195.112"/>
</g>
<g>
	<polygon class="solid" stroke-linecap="round" stroke-linejoin="round" stroke-miterlimit="10" points="
		550.189,350.828 550.301,347.706 549.867,344.426 550.564,344.611 552.395,348.657 553.54,350.184 553.084,353.501 	"/>
	<path class="solid" stroke-linecap="round" stroke-linejoin="round" stroke-miterlimit="10" d="M568.507,415.453
		l-18.317-64.625c0,0,0.97,0.832,1.413,0.044c0,0,0.809,0.541,1.317-0.306c0,0,0.509,0.38,0.62-0.383l17.869,63.048L568.507,415.453
		z"/>
	<path class="solid" stroke-linecap="round" stroke-linejoin="round" stroke-miterlimit="10" d="M570.766,423.431
		c0.098,0.337,0.451,0.534,0.787,0.438l2.048-0.58c0.336-0.096,0.534-0.449,0.438-0.787l-1.487-5.251
		c-0.096-0.338-0.451-0.533-0.787-0.439l-2.045,0.58c-0.338,0.097-0.537,0.451-0.439,0.787L570.766,423.431z"/>
	
		<rect x="569.043" y="413.56" transform="matrix(-0.9622 0.2724 -0.2724 -0.9622 1233.531 662.9323)" class="solid" stroke-linecap="round" stroke-linejoin="round" stroke-miterlimit="10" width="3.398" height="7.086"/>
	<path class="line" stroke-linecap="round" stroke-linejoin="round" stroke-miterlimit="10" d="M557.347,363.603"/>
	<polygon class="solid" stroke-linecap="round" stroke-linejoin="round" stroke-miterlimit="10" points="
		550.564,344.611 549.623,342.595 549.867,344.426 	"/>
	
		<line class="solid" stroke-linecap="round" stroke-linejoin="round" stroke-miterlimit="10" x1="572.923" y1="418.565" x2="569.65" y2="419.492"/>
	
		<line class="solid" stroke-linecap="round" stroke-linejoin="round" stroke-miterlimit="10" x1="571.909" y1="414.986" x2="568.637" y2="415.915"/>
</g>
<g>
	<polygon class="solid" stroke-linecap="round" stroke-linejoin="round" stroke-miterlimit="10" points="
		77.204,167.913 74.52,166.312 71.436,165.113 71.935,164.591 76.362,164.938 78.253,164.664 79.75,166.252 	"/>
	<path class="solid" stroke-linecap="round" stroke-linejoin="round" stroke-miterlimit="10" d="M142.658,182.991
		l-65.454-15.078c0,0,1.196-0.452,0.718-1.216c0,0,0.866-0.45,0.367-1.302c0,0,0.579-0.263-0.036-0.731l63.858,14.712
		L142.658,182.991z"/>
	<path class="solid" stroke-linecap="round" stroke-linejoin="round" stroke-miterlimit="10" d="M150.738,184.855
		c0.341,0.078,0.686-0.138,0.764-0.479l0.479-2.073c0.077-0.342-0.138-0.685-0.481-0.764l-5.315-1.225
		c-0.341-0.079-0.685,0.136-0.765,0.478l-0.479,2.072c-0.076,0.342,0.138,0.685,0.48,0.764L150.738,184.855z"/>
	
		<rect x="143.48" y="178.287" transform="matrix(-0.2245 0.9745 -0.9745 -0.2245 354.965 81.1802)" class="solid" stroke-linecap="round" stroke-linejoin="round" stroke-miterlimit="10" width="3.401" height="7.085"/>
	<path class="line" stroke-linecap="round" stroke-linejoin="round" stroke-miterlimit="10" d="M91.847,167.797"/>
	<polygon class="solid" stroke-linecap="round" stroke-linejoin="round" stroke-miterlimit="10" points="
		71.935,164.591 69.714,164.442 71.436,165.113 	"/>
	
		<line class="solid" stroke-linecap="round" stroke-linejoin="round" stroke-miterlimit="10" x1="147.514" y1="180.622" x2="146.75" y2="183.935"/>
	
		<line class="solid" stroke-linecap="round" stroke-linejoin="round" stroke-miterlimit="10" x1="143.889" y1="179.787" x2="143.125" y2="183.101"/>
</g>
<g>
	<polygon class="solid" stroke-linecap="round" stroke-linejoin="round" stroke-miterlimit="10" points="
		592.723,29.336 594.791,26.992 596.539,24.183 596.959,24.769 595.803,29.057 595.723,30.965 592.723,33.125 	"/>
	<path class="solid" stroke-linecap="round" stroke-linejoin="round" stroke-miterlimit="10" d="M565.83,90.886
		l26.893-61.55c0,0,0.224,1.259,1.062,0.927c0,0,0.283,0.937,1.211,0.604c0,0,0.151,0.617,0.727,0.099l-26.234,60.048L565.83,90.886
		z"/>
	<path class="solid" stroke-linecap="round" stroke-linejoin="round" stroke-miterlimit="10" d="M562.511,98.482
		c-0.141,0.322,0.009,0.7,0.329,0.841l1.947,0.849c0.321,0.144,0.702-0.005,0.842-0.329l2.184-4.998
		c0.142-0.32-0.008-0.698-0.328-0.839l-1.95-0.852c-0.321-0.142-0.698,0.007-0.839,0.327L562.511,98.482z"/>
	<polygon class="solid" stroke-linecap="round" stroke-linejoin="round" stroke-miterlimit="10" points="
		566.37,89.653 569.488,91.013 566.65,97.509 563.535,96.144 	"/>
	<path class="line" stroke-linecap="round" stroke-linejoin="round" stroke-miterlimit="10" d="M590.136,43.747"/>
	<polyline class="solid" stroke-linecap="round" stroke-linejoin="round" stroke-miterlimit="10" points="
		596.959,24.769 597.516,22.614 596.539,24.183 	"/>
	
		<line class="solid" stroke-linecap="round" stroke-linejoin="round" stroke-miterlimit="10" x1="567.267" y1="96.095" x2="564.15" y2="94.733"/>
	
		<line class="solid" stroke-linecap="round" stroke-linejoin="round" stroke-miterlimit="10" x1="568.758" y1="92.688" x2="565.639" y2="91.325"/>
</g>
</svg>
